<svg xmlns="http://www.w3.org/2000/svg" width="21.78" height="20.746" viewBox="0 0 21.78 20.746">
  <g id="グループ_1791" data-name="グループ 1791" transform="translate(-10.004 -21.38)">
    <path id="パス_830" data-name="パス 830" d="M17.76,38.36a.606.606,0,0,1-.6-.494L14.431,23.392l-3.943-.811a.606.606,0,0,1,.245-1.188l4.341.893a.607.607,0,0,1,.473.482l2.715,14.377,10.219-.055a.606.606,0,1,1,.007,1.212l-10.725.058Z" fill="#fff"/>
    <path id="パス_831" data-name="パス 831" d="M20.36,39a1.564,1.564,0,1,0,1.564,1.564A1.564,1.564,0,0,0,20.36,39" fill="#fff" fill-rule="evenodd"/>
    <path id="パス_832" data-name="パス 832" d="M27.254,39a1.564,1.564,0,1,0,1.564,1.564A1.564,1.564,0,0,0,27.254,39" fill="#fff" fill-rule="evenodd"/>
    <path id="パス_833" data-name="パス 833" d="M31.785,26.086H15.677l1.512,9.559H30.08Z" fill="#fff"/>
  </g>
</svg>
