<svg xmlns="http://www.w3.org/2000/svg" width="153.285" height="47.98" viewBox="0 0 153.285 47.98">
  <g id="Group_1516" data-name="Group 1516" transform="translate(-568.285 -2754.999)">
    <path id="Path_838" data-name="Path 838" d="M38.032,23.152l-.16,0-.138,0c-.507-.01-1.2-.023-1.2-.416a1.278,1.278,0,0,1,.673-.983l.106-.074c3.391-2.441,7.309-3.308,11.037-3.881.209-.032.417-.06.627-.089l.384-.053c.063-.006,5.781-.459,6.743-.539,1.524-.128,3.013-.26,4.5-.477.025,0,2.171-.26,2.564-.317.818-.121,1.679-.232,2.593-.35,1.464-.186,2.977-.38,4.474-.641A139.934,139.934,0,0,0,92.433,9.907a6.328,6.328,0,0,0,2.9-2.51c.063-.116.13-.235.2-.355l.063-.114c.027-.057.042-.093.042-.094l.009,0c1.142-2.048,2.392-3.987,3.466-5.614C99.863.078,100.6-.264,101.238.2a3.019,3.019,0,0,1,.7,2.4,7.013,7.013,0,0,1-2.506,4.26,13.973,13.973,0,0,1-1.672,1.417c.044-.018.084-.032.117-.044.208-.073.39-.14.56-.2.343-.124.642-.232.978-.338.218-.068.492-.17.786-.278.459-.171.979-.364,1.408-.473a17.686,17.686,0,0,1,4.189-.693h.031c1.31,0,2.02.608,2.142,1.211a1.276,1.276,0,0,1-.925,1.382l-.078.033-.04-.074c-.045-.082-.088-.147-.13-.21a1.893,1.893,0,0,1-.193-.344,1.294,1.294,0,0,0-1.443-.947c-.057,0-.151,0-.275.006a11.343,11.343,0,0,0-2.289.194,19.309,19.309,0,0,0-3.356,1.155c-.539.23-1.211.516-2.223.919l-.933.528c.366.755,2.571,3.364,4.084,3.932a13.752,13.752,0,0,0,2.794.406.643.643,0,0,0,.16-.011,3.289,3.289,0,0,0,1.1-.626c.075-.057.15-.115.228-.171a5.481,5.481,0,0,0,.692-.681c.372-.8.928-1.959,1.018-2.148-.037-.3.268-.522.493-.681a2.1,2.1,0,0,0,.18-.135l.06-.055.062.051a2.244,2.244,0,0,0,.252.165,1.083,1.083,0,0,1,.461.4l.014.029-.228,1.013c-.683.816-2.361,3.829-1.845,4.438a1.115,1.115,0,0,0,.748.246.848.848,0,0,0,.272-.038,10.6,10.6,0,0,0,1.67-.827l.242-.138c.168-.529.514-1.515.621-1.8l.578-1.454a2.84,2.84,0,0,1,.9-1.273l.088-.064.051.1a2.107,2.107,0,0,0,.17.251,1.541,1.541,0,0,1,.395,1.052l-.009.036-.552,1.069a10.741,10.741,0,0,0-.742,1.432c-.178.377-.346.737-.479.979.075,0,.149,0,.225.007s.171.006.256.006a1.232,1.232,0,0,0,.526-.092,8.027,8.027,0,0,0,1.225-.772l.2-.151.771-1.244c.313-.54.533-.832.856-.922l.078-.022.032.072a2.05,2.05,0,0,0,.118.209A1.431,1.431,0,0,1,114.1,13.7l0,.025-.5.631c-.274.331-.526.688-.77,1.034-.079.111-.158.223-.237.334a.7.7,0,0,0,.575.215,4,4,0,0,0,1.434-.386c.62-.275,4.094-2.049,4.675-2.415l.108.153a28.632,28.632,0,0,1-5.836,3.49c-.957.194-1.613.086-1.9-.307a.974.974,0,0,1-.091-.9l0-.008a4.74,4.74,0,0,1-1.995,1.2c-.638.1-1.058-.125-1.145-.611a5.222,5.222,0,0,1-2.492,1.073H105.9A1.369,1.369,0,0,1,104.42,15.7a3.566,3.566,0,0,1,.1-.769,2.541,2.541,0,0,1-1.337.335c-.156-.006-.321-.007-.494-.008a6.981,6.981,0,0,1-4.4-1.25,10.663,10.663,0,0,1-1.009-.823c-.179-.163-.329-.322-.5-.506-.084-.09-.174-.187-.281-.295-.27-.285-1.368-1.732-1.532-1.948a.83.83,0,0,1-.106-.033,6.641,6.641,0,0,0-.808,1.454,18.19,18.19,0,0,1-.879,1.767c-.153.281-.308.57-.465.874l-.487.814c-.289.527-.52,1-.723,1.424a11.571,11.571,0,0,1-.8,1.473,2.984,2.984,0,0,0-.16.281,1.8,1.8,0,0,1-.4.586,1.663,1.663,0,0,1-1.106.369l-.108-.008.025-.1c.024-.116.039-.237.054-.359a2.052,2.052,0,0,1,.209-.781c.962-1.624,1.959-3.262,2.923-4.847q.733-1.205,1.464-2.411a3.149,3.149,0,0,0,.215-.467c.018-.046.038-.095.057-.146-.605.2-1.2.4-1.787.591-1.415.471-2.753.916-4.125,1.315a173.512,173.512,0,0,1-24.735,5.01l-1.281.134c-.211.012-.818.088-1.221.139-.209.025-.373.047-.425.051q-3.778.341-7.552.7l-2.216.256a26.112,26.112,0,0,0-10.544,2.834c-1.3.739-1.27,1.368-1.27,1.375l.019.273-.07-.079c-.13.232-.482.232-.632.232M100.54,1.347c-2.164,1.721-3.283,4.144-4.364,6.487-.07.148-.137.3-.206.445C97.9,7.235,99.781,5.94,100.682,3.7a2.117,2.117,0,0,0-.143-2.355" transform="translate(565.615 2755)"/>
    <path id="Path_839" data-name="Path 839" d="M7.906,50.673H4.682v-.436l.056,0c.587-.044.908-.17.908-.354a1.447,1.447,0,0,0-.168-.486L3.407,45.5l-1.3,1.974v1.9c0,.367.058.578.189.688a1.881,1.881,0,0,0,.774.177l.057,0v.438H0v-.437l.057,0a1.31,1.31,0,0,0,.864-.267,1.373,1.373,0,0,0,.12-.6v-7.5A.831.831,0,0,0,.834,41.2a1.933,1.933,0,0,0-.78-.18L0,41.013v-.45H3.126v.452l-.056,0c-.566.039-.77.164-.842.261a1.035,1.035,0,0,0-.123.587V46.36l2.739-4.445a1.254,1.254,0,0,0,.243-.558c0-.189-.268-.31-.754-.338l-.057,0v-.452H7.134v.448l-.051.007a2.036,2.036,0,0,0-1.5.976L4.043,44.488l2.6,4.852a1.6,1.6,0,0,0,1.209.894l.051.007Z" transform="translate(568.285 2752.035)"/>
    <path id="Path_840" data-name="Path 840" d="M15.037,50.944a2.857,2.857,0,0,1-2.575-1.193,3.366,3.366,0,0,1-.491-1.853v-6c0-.385-.073-.618-.223-.715a1.889,1.889,0,0,0-.762-.166l-.055-.006v-.45h3.262v.452l-.057,0c-.492.031-.78.126-.876.289a1.1,1.1,0,0,0-.128.591v6c0,1.591.673,2.365,2.059,2.365A1.964,1.964,0,0,0,17.159,49.1a3.038,3.038,0,0,0,.246-1.3V41.9c0-.366-.083-.613-.242-.715a1.824,1.824,0,0,0-.781-.166l-.057-.006v-.45h2.82v.452l-.057,0c-.457.031-.74.124-.84.275a1.061,1.061,0,0,0-.124.605v5.9a3.143,3.143,0,0,1-.689,2.129,2.945,2.945,0,0,1-2.4,1.011" transform="translate(567.486 2752.035)"/>
    <path id="Path_841" data-name="Path 841" d="M43.572,50.653H40.309v-.436l.057,0c.449-.032.983-.14.983-.482a1.316,1.316,0,0,0-.093-.458l-.682-2.354H37.831l-.737,2.335A1.676,1.676,0,0,0,37,49.7c0,.3.337.47,1,.515l.057,0v.436H35.337v-.429l.049-.009a1.293,1.293,0,0,0,1-1.012l2.806-8.915h.533l.014.043,2.736,8.92a1.216,1.216,0,0,0,1.047.964l.054.006Zm-5.586-4.27h2.4l-1.155-4.033Z" transform="translate(565.702 2752.055)"/>
    <path id="Path_842" data-name="Path 842" d="M103.955,50.944h-.544l-.009-.05-1.368-7.533-1.472,7.583H99.98l-.01-.053L98.526,41.94c-.094-.568-.309-.879-.642-.923l-.053-.007v-.448h2.4v.45l-.057.006c-.387.029-.582.2-.582.513a2.544,2.544,0,0,0,.038.389l.874,6.03,1.182-6.037-.057-.358a.661.661,0,0,0-.7-.538l-.057,0v-.452h2.472v.452l-.057,0c-.6.043-.6.312-.6.4a2.419,2.419,0,0,0,.055.369l1.094,6.04.889-5.94a2.284,2.284,0,0,0,.037-.342c0-.383-.4-.5-.734-.529l-.057-.006v-.45h2.165v.447l-.051.008c-.366.062-.59.366-.661.906Z" transform="translate(561.134 2752.035)"/>
    <path id="Path_843" data-name="Path 843" d="M114.937,50.673h-3.783v-.438l.056,0a1.821,1.821,0,0,0,1.079-.285.912.912,0,0,0,.155-.612V41.9c0-.4-.115-.64-.365-.742a2.514,2.514,0,0,0-.866-.139l-.058,0v-.453h3.783v.452l-.059,0a1.685,1.685,0,0,0-1.072.283.822.822,0,0,0-.16.6v7.436c0,.407.12.654.368.757a3.739,3.739,0,0,0,.865.139l.059,0Z" transform="translate(560.161 2752.035)"/>
    <path id="Path_844" data-name="Path 844" d="M126.334,50.944h-.542l-.017-.034L121.3,42.043v7.293c0,.384.073.617.223.714a1.807,1.807,0,0,0,.763.183l.054,0v.436h-2.8V50.24l.054-.007c.362-.048.749-.119.865-.278a1.35,1.35,0,0,0,.122-.618V41.884a.868.868,0,0,0-.209-.688,1.574,1.574,0,0,0-.774-.177l-.058,0v-.454h2.238l.017.032,3.8,7.543V41.9a.865.865,0,0,0-.21-.7,1.454,1.454,0,0,0-.773-.177l-.057,0v-.454h2.82v.452l-.057,0c-.5.031-.8.127-.9.289a1.222,1.222,0,0,0-.086.591Z" transform="translate(559.547 2752.035)"/>
    <path id="Path_845" data-name="Path 845" d="M139.494,50.673h-7.233v-.438l.058,0c.545-.032.856-.124.974-.294a.992.992,0,0,0,.123-.571v-7.5a.767.767,0,0,0-.276-.7,2.026,2.026,0,0,0-.821-.151l-.058,0v-.453h7.02v2.578h-.522l0-.056a2.468,2.468,0,0,0-.5-1.588,2.052,2.052,0,0,0-1.46-.414h-1.138c-.51,0-.865.083-.971.231a1.014,1.014,0,0,0-.124.553v3.2h1.231c.708,0,1.178-.12,1.359-.345a1.559,1.559,0,0,0,.3-.97v-.058h.525v3.378h-.523l0-.057a1.49,1.49,0,0,0-.492-1.228,2.547,2.547,0,0,0-1.163-.2H134.56v3.786c0,.363.1.591.293.679a2.251,2.251,0,0,0,.822.107h1.156a1.938,1.938,0,0,0,1.817-.738,3.825,3.825,0,0,0,.337-1.426l.006-.057h.5Z" transform="translate(558.618 2752.035)"/>
    <path id="Path_846" data-name="Path 846" d="M152.625,50.673H150.54l-.017-.037c-.671-1.549-1.519-3.249-2.523-5.054h-1.041v3.786c0,.374.087.615.26.713a1.907,1.907,0,0,0,.781.153l.057,0v.438H144.68v-.437l.057,0c.522-.032.836-.125.935-.277a1.051,1.051,0,0,0,.125-.589v-7.5c0-.349-.082-.579-.241-.682a1.58,1.58,0,0,0-.818-.166l-.058,0v-.454h3.414a5.271,5.271,0,0,1,2.124.372,2.137,2.137,0,0,1,1.482,2.082c0,1.278-.846,2.1-2.513,2.454l2.042,3.853a1.667,1.667,0,0,0,1.343.91l.052.008Zm-5.665-5.611h1.115a2.507,2.507,0,0,0,1.732-.59,1.924,1.924,0,0,0,.6-1.455c0-1.3-.761-1.934-2.327-1.934a1.481,1.481,0,0,0-1.014.234c-.083.085-.1.273-.1.551Z" transform="translate(557.71 2752.035)"/>
    <path id="Path_847" data-name="Path 847" d="M162.349,50.673h-3.512v-.438l.057,0c.561-.032.892-.137,1.014-.323a1.077,1.077,0,0,0,.1-.573v-2.6l-2.342-4.856a1.463,1.463,0,0,0-1.148-.859l-.055-.006v-.449h3.243v.453l-.056,0c-.414.02-.907.108-.907.4a.952.952,0,0,0,.11.387l1.949,4.037,1.91-3.955a.873.873,0,0,0,.129-.4c0-.28-.33-.437-.983-.466l-.057,0v-.453h2.916v.45l-.056.006a1.5,1.5,0,0,0-1.224.955l-2.267,4.569v2.794a.8.8,0,0,0,.316.76,2.864,2.864,0,0,0,.8.136l.057,0Z" transform="translate(556.849 2752.035)"/>
    <path id="Path_848" data-name="Path 848" d="M32.007,49.98l-.739-.079a6.047,6.047,0,0,1-.221-2.189l-.165-6.065c.009-.136.042-.3.145-.312l.872-.08a.075.075,0,0,0,.068-.072l.024-.541a.073.073,0,0,0-.02-.055.071.071,0,0,0-.054-.024H29.453a.075.075,0,0,0-.072.057l-2,7.521-2.044-7.522a.075.075,0,0,0-.072-.056H22.744a.072.072,0,0,0-.055.024.074.074,0,0,0-.019.057l.035.541a.075.075,0,0,0,.059.069l.827.173c.231.081.315.369.292.994l-.2,5.242c-.073,1.835-.156,2.184-.289,2.208l-.791.111a.074.074,0,0,0-.064.068l-.047.542a.082.082,0,0,0,.019.057.075.075,0,0,0,.055.024H25.2a.077.077,0,0,0,.055-.023.076.076,0,0,0,.019-.057l-.035-.542a.075.075,0,0,0-.064-.07l-.781-.112c-.11-.01-.1-.5-.039-2.2l.2-5.709,2.275,8.34a.075.075,0,0,0,.072.055h.495a.075.075,0,0,0,.072-.055l2.312-8.536.159,5.953a6.883,6.883,0,0,1-.109,2.185l-.766.08a.075.075,0,0,0-.067.07l-.036.542a.075.075,0,0,0,.074.08h3.007a.073.073,0,0,0,.074-.08l-.035-.542a.076.076,0,0,0-.067-.07" transform="translate(566.641 2752.035)"/>
    <path id="Path_849" data-name="Path 849" d="M55.356,49.98l-.739-.079a6.023,6.023,0,0,1-.221-2.189l-.165-6.065c.009-.136.042-.3.145-.312l.872-.08a.075.075,0,0,0,.068-.072l.024-.541a.073.073,0,0,0-.02-.055.071.071,0,0,0-.054-.024H52.8a.075.075,0,0,0-.072.057l-2,7.521-2.044-7.522a.075.075,0,0,0-.072-.056H46.093a.072.072,0,0,0-.055.024.074.074,0,0,0-.019.057l.035.541a.075.075,0,0,0,.059.069l.827.173c.231.081.315.369.292.994l-.2,5.242c-.073,1.835-.156,2.184-.289,2.208l-.791.111a.074.074,0,0,0-.064.068l-.047.542a.082.082,0,0,0,.019.057.075.075,0,0,0,.055.024h2.63a.077.077,0,0,0,.055-.023.076.076,0,0,0,.019-.057l-.035-.542a.075.075,0,0,0-.064-.07l-.781-.112c-.11-.01-.1-.5-.039-2.2l.2-5.709,2.275,8.34a.075.075,0,0,0,.072.055h.495a.075.075,0,0,0,.072-.055l2.312-8.536.159,5.953a6.883,6.883,0,0,1-.109,2.185l-.766.08a.075.075,0,0,0-.067.07l-.036.542a.075.075,0,0,0,.074.08h3.007a.073.073,0,0,0,.074-.08l-.035-.542a.076.076,0,0,0-.067-.07" transform="translate(564.934 2752.035)"/>
    <path id="Path_850" data-name="Path 850" d="M62.372,40.674c-2.141,0-3.819,2.265-3.819,5.157,0,2.909,1.591,5.019,3.785,5.019,2.142,0,3.821-2.259,3.821-5.142,0-2.917-1.592-5.034-3.786-5.034m2.592,5.2c0,2.526-1.065,4.29-2.592,4.29-1.3,0-2.625-1.548-2.625-4.5,0-2.526,1.061-4.29,2.58-4.29,1.311,0,2.637,1.547,2.637,4.5" transform="translate(564.005 2752.027)"/>
    <path id="Path_851" data-name="Path 851" d="M83.524,40.674c-2.141,0-3.819,2.265-3.819,5.157,0,2.909,1.591,5.019,3.785,5.019,2.142,0,3.821-2.259,3.821-5.142,0-2.917-1.592-5.034-3.786-5.034m2.592,5.2c0,2.526-1.065,4.29-2.592,4.29-1.3,0-2.625-1.548-2.625-4.5,0-2.526,1.061-4.29,2.58-4.29,1.311,0,2.637,1.547,2.637,4.5" transform="translate(562.459 2752.027)"/>
    <path id="Path_852" data-name="Path 852" d="M76.057,40.914H69.889a.072.072,0,0,0-.072.068l-.2,2.949a.07.07,0,0,0,.019.055.072.072,0,0,0,.053.022h.52a.073.073,0,0,0,.071-.059l.311-1.718c.111-.5.191-.6,1.786-.6l.007,8.13c0,.049,0,.11-.236.143l-.783.092a.073.073,0,0,0-.064.069l-.035.522a.077.077,0,0,0,.019.056.076.076,0,0,0,.054.022h3.182a.073.073,0,0,0,.053-.022.074.074,0,0,0,.019-.056l-.034-.522a.074.074,0,0,0-.064-.069l-.783-.091c-.236-.032-.236-.071-.236-.127V41.627h.007c1.625.016,1.656.19,1.751.707l.254,1.613a.073.073,0,0,0,.072.061h.495a.071.071,0,0,0,.072-.072V40.986a.072.072,0,0,0-.072-.072" transform="translate(563.196 2752.009)"/>
  </g>
</svg>
