<svg id="Group_1519" data-name="Group 1519" xmlns="http://www.w3.org/2000/svg" xmlns:xlink="http://www.w3.org/1999/xlink" width="139.782" height="49.62" viewBox="0 0 139.782 49.62">
  <defs>
    <clipPath id="clip-path">
      <rect id="Rectangle_1204" data-name="Rectangle 1204" width="139.782" height="49.62" fill="none"/>
    </clipPath>
  </defs>
  <g id="Group_1518" data-name="Group 1518" transform="translate(0 0)" clip-path="url(#clip-path)">
    <path id="Path_853" data-name="Path 853" d="M31.393,23.945c-.056,0-.113,0-.166,0l-.143,0c-.525-.011-1.244-.024-1.244-.43a1.321,1.321,0,0,1,.7-1.016l.108-.077C34.152,19.891,38.2,18.993,42.06,18.4c.216-.034.43-.063.648-.091.132-.019.264-.038.4-.055.065-.007,5.979-.475,6.974-.557,1.576-.133,3.116-.27,4.649-.494.026,0,2.245-.269,2.652-.329.845-.126,1.735-.24,2.681-.361,1.513-.193,3.078-.394,4.625-.664a144.725,144.725,0,0,0,22.967-5.6,6.542,6.542,0,0,0,3-2.6c.065-.12.135-.243.2-.367l.066-.118c.027-.059.043-.1.043-.1l.009,0c1.181-2.118,2.474-4.123,3.585-5.805C95.338.08,96.1-.273,96.758.207a3.127,3.127,0,0,1,.72,2.478,7.262,7.262,0,0,1-2.593,4.406,14.594,14.594,0,0,1-1.729,1.466c.046-.019.087-.034.121-.046.214-.075.4-.145.579-.207.355-.129.665-.24,1.011-.35.225-.07.51-.176.812-.288.475-.176,1.013-.376,1.456-.488a18.292,18.292,0,0,1,4.332-.716h.033c1.354,0,2.088.627,2.216,1.252a1.322,1.322,0,0,1-.957,1.429l-.08.035-.042-.077c-.048-.083-.091-.152-.134-.217a2.009,2.009,0,0,1-.2-.356,1.338,1.338,0,0,0-1.492-.98c-.06,0-.156,0-.285.006a11.85,11.85,0,0,0-2.369.2,20.059,20.059,0,0,0-3.471,1.194c-.557.239-1.252.534-2.3.951l-.965.546c.378.781,2.659,3.479,4.223,4.067a14.23,14.23,0,0,0,2.89.42.638.638,0,0,0,.165-.012,3.419,3.419,0,0,0,1.137-.647c.077-.059.155-.119.234-.177a5.649,5.649,0,0,0,.717-.7c.385-.831.959-2.026,1.052-2.221-.038-.317.278-.54.511-.7.071-.051.137-.1.185-.14l.063-.057.063.052a2.1,2.1,0,0,0,.26.172,1.112,1.112,0,0,1,.476.414l.015.03-.236,1.048c-.706.843-2.442,3.961-1.907,4.59a1.154,1.154,0,0,0,.773.254.881.881,0,0,0,.282-.039,11,11,0,0,0,1.727-.855l.25-.143c.174-.547.531-1.567.642-1.863l.6-1.5a2.935,2.935,0,0,1,.932-1.316l.091-.066.052.1a2.1,2.1,0,0,0,.174.26,1.594,1.594,0,0,1,.41,1.088l-.011.038-.57,1.1a10.912,10.912,0,0,0-.767,1.482c-.186.389-.359.761-.5,1.012.078,0,.156,0,.233.007s.177.007.265.007a1.279,1.279,0,0,0,.543-.094,8.4,8.4,0,0,0,1.267-.8l.209-.157.8-1.286c.324-.558.551-.861.886-.954l.081-.022.033.074a2.3,2.3,0,0,0,.121.217,1.475,1.475,0,0,1,.271,1.048l0,.026-.514.653c-.283.343-.544.711-.8,1.069-.081.115-.163.231-.246.345a.721.721,0,0,0,.594.222,4.147,4.147,0,0,0,1.484-.4c.641-.285,4.233-2.119,4.834-2.5l.112.159a29.561,29.561,0,0,1-6.035,3.61c-.99.2-1.668.089-1.967-.317a1.014,1.014,0,0,1-.1-.927l0-.008a4.918,4.918,0,0,1-2.062,1.246c-.661.106-1.1-.13-1.186-.633a5.4,5.4,0,0,1-2.577,1.11h-.026a1.415,1.415,0,0,1-1.536-1.581,3.79,3.79,0,0,1,.1-.8,2.618,2.618,0,0,1-1.381.347c-.162-.007-.331-.008-.512-.009a7.223,7.223,0,0,1-4.548-1.293,10.8,10.8,0,0,1-1.043-.851c-.188-.168-.342-.332-.521-.523-.089-.093-.181-.194-.291-.305-.278-.294-1.415-1.792-1.585-2.015a.659.659,0,0,1-.107-.035,6.773,6.773,0,0,0-.837,1.5,18.763,18.763,0,0,1-.908,1.827c-.158.29-.319.59-.482.9l-.5.842c-.3.544-.538,1.037-.748,1.471a11.853,11.853,0,0,1-.823,1.524,3.254,3.254,0,0,0-.166.29,1.885,1.885,0,0,1-.417.606,1.727,1.727,0,0,1-1.143.382l-.113-.009.026-.108c.024-.12.04-.245.056-.371a2.1,2.1,0,0,1,.215-.809c1-1.679,2.027-3.373,3.024-5.012q.758-1.248,1.513-2.493a3.255,3.255,0,0,0,.222-.484c.019-.048.039-.1.061-.15-.627.2-1.242.409-1.849.612-1.465.486-2.847.947-4.266,1.359a179.533,179.533,0,0,1-25.58,5.182l-1.324.139c-.219.012-.847.091-1.262.144-.216.026-.387.049-.44.052q-3.907.353-7.811.722l-2.291.265a27.006,27.006,0,0,0-10.9,2.931C32.071,22.846,32.1,23.5,32.1,23.5l.021.283-.074-.081c-.134.24-.5.24-.653.24M96.037,1.393c-2.24,1.78-3.4,4.286-4.514,6.708-.072.153-.141.306-.212.46,2-1.079,3.94-2.418,4.873-4.733a2.19,2.19,0,0,0-.147-2.436" transform="translate(-1.98 0)"/>
    <path id="Path_854" data-name="Path 854" d="M8.176,52.1H4.842v-.45l.058,0c.606-.046.939-.176.939-.367a1.494,1.494,0,0,0-.174-.5L3.525,46.749,2.178,48.79v1.962c0,.38.061.6.2.711a1.947,1.947,0,0,0,.8.184l.06,0V52.1H0V51.65l.058,0a1.353,1.353,0,0,0,.894-.276,1.41,1.41,0,0,0,.124-.619V43A.859.859,0,0,0,.863,42.3a1.99,1.99,0,0,0-.806-.186L0,42.113v-.466H3.233v.468l-.057,0c-.586.04-.8.169-.87.27A1.068,1.068,0,0,0,2.178,43v4.646l2.833-4.6a1.3,1.3,0,0,0,.251-.576c0-.2-.277-.321-.78-.35l-.058,0v-.468H7.379v.462l-.053.008a2.106,2.106,0,0,0-1.55,1.009L4.181,45.706l2.693,5.017a1.653,1.653,0,0,0,1.249.925l.053.007Z" transform="translate(0 -2.763)"/>
    <path id="Path_855" data-name="Path 855" d="M16.8,52.1H12.884V51.65l.06,0a1.886,1.886,0,0,0,1.115-.3.942.942,0,0,0,.162-.633V43.03c0-.417-.121-.661-.379-.767a2.611,2.611,0,0,0-.9-.144l-.06,0v-.469H16.8v.468l-.06,0a1.766,1.766,0,0,0-1.113.291.862.862,0,0,0-.162.62v7.69c0,.421.124.678.379.783a3.854,3.854,0,0,0,.9.145l.06,0Z" transform="translate(-0.855 -2.763)"/>
    <path id="Path_856" data-name="Path 856" d="M30.285,52.1H26.95v-.45l.059,0c.605-.046.937-.176.937-.367a1.539,1.539,0,0,0-.172-.5l-2.141-4.029L24.287,48.79v1.962c0,.38.06.6.2.711a1.948,1.948,0,0,0,.8.184l.061,0V52.1H22.108V51.65l.059,0a1.348,1.348,0,0,0,.893-.276,1.4,1.4,0,0,0,.125-.619V43a.856.856,0,0,0-.214-.692,1.98,1.98,0,0,0-.8-.186l-.058-.006v-.466h3.235v.468l-.059,0c-.586.04-.8.169-.87.27a1.071,1.071,0,0,0-.127.608v4.646l2.832-4.6a1.278,1.278,0,0,0,.249-.576c0-.2-.275-.321-.778-.35l-.058,0v-.468h2.955v.462l-.053.008a2.1,2.1,0,0,0-1.55,1.009L26.29,45.706l2.693,5.017a1.653,1.653,0,0,0,1.249.925l.053.007Z" transform="translate(-1.467 -2.763)"/>
    <path id="Path_857" data-name="Path 857" d="M39.008,52.383a2.953,2.953,0,0,1-2.663-1.234,3.481,3.481,0,0,1-.509-1.916v-6.2c0-.4-.075-.64-.231-.739a1.941,1.941,0,0,0-.787-.172l-.058-.007v-.466h3.374v.468l-.059,0c-.509.031-.806.13-.907.3a1.141,1.141,0,0,0-.132.612v6.2c0,1.646.7,2.446,2.13,2.446a2.031,2.031,0,0,0,2.034-1.2,3.139,3.139,0,0,0,.255-1.343V43.03c0-.379-.087-.635-.251-.739a1.876,1.876,0,0,0-.808-.172l-.059-.007v-.466h2.917v.468l-.059,0c-.472.032-.766.128-.868.285a1.1,1.1,0,0,0-.129.626v6.105a3.247,3.247,0,0,1-.712,2.2,3.042,3.042,0,0,1-2.48,1.047" transform="translate(-2.306 -2.763)"/>
    <path id="Path_858" data-name="Path 858" d="M56.051,52.1H52.716v-.45l.059,0c.6-.046.936-.176.936-.367a1.525,1.525,0,0,0-.172-.5L51.4,46.749,50.051,48.79v1.962c0,.38.061.6.2.711a1.94,1.94,0,0,0,.8.184l.06,0V52.1H47.873V51.65l.058,0a1.356,1.356,0,0,0,.894-.276,1.423,1.423,0,0,0,.125-.619V43a.852.852,0,0,0-.215-.692,1.98,1.98,0,0,0-.8-.186l-.058-.006v-.466h3.234v.468l-.058,0c-.585.04-.8.169-.87.27a1.07,1.07,0,0,0-.128.608v4.646l2.833-4.6a1.287,1.287,0,0,0,.251-.576c0-.2-.276-.321-.779-.35l-.058,0v-.468h2.954v.462l-.053.008a2.109,2.109,0,0,0-1.551,1.009l-1.595,2.579,2.694,5.017a1.653,1.653,0,0,0,1.25.925l.053.007Z" transform="translate(-3.176 -2.763)"/>
    <path id="Path_859" data-name="Path 859" d="M68.228,52.082H64.854v-.45l.058,0c.464-.032,1.018-.145,1.018-.5a1.376,1.376,0,0,0-.1-.473l-.707-2.434H62.292l-.762,2.414a1.73,1.73,0,0,0-.1.459c0,.307.349.486,1.036.532l.059,0v.45H59.712v-.443l.05-.009a1.336,1.336,0,0,0,1.029-1.048l2.9-9.22h.551l.014.045,2.83,9.225a1.258,1.258,0,0,0,1.083,1l.056.007ZM62.45,47.666h2.483L63.739,43.5Z" transform="translate(-3.962 -2.744)"/>
    <path id="Path_860" data-name="Path 860" d="M86.7,52.383h-.563l-.009-.052-1.415-7.789-1.522,7.842h-.6l-.009-.054-1.494-9.258c-.1-.587-.318-.908-.664-.954l-.055-.007v-.463h2.479v.466l-.058.007c-.4.03-.6.209-.6.53a2.589,2.589,0,0,0,.039.4l.9,6.237,1.221-6.244-.058-.369a.683.683,0,0,0-.719-.556l-.059-.006v-.467h2.556v.467l-.058.006c-.617.044-.617.323-.617.415a2.5,2.5,0,0,0,.056.383l1.131,6.245.921-6.143a2.27,2.27,0,0,0,.037-.354c0-.4-.414-.516-.759-.547l-.059-.007v-.466h2.239v.462l-.052.008c-.379.063-.611.378-.683.936Z" transform="translate(-5.332 -2.763)"/>
    <path id="Path_861" data-name="Path 861" d="M97.96,52.1H94.048V51.65l.058,0a1.884,1.884,0,0,0,1.115-.3.937.937,0,0,0,.161-.633V43.03c0-.417-.119-.661-.378-.767a2.606,2.606,0,0,0-.894-.144l-.061,0v-.469H97.96v.468l-.061,0a1.751,1.751,0,0,0-1.11.291.859.859,0,0,0-.165.62v7.69c0,.421.124.678.381.783a3.833,3.833,0,0,0,.894.145l.061,0Z" transform="translate(-6.24 -2.763)"/>
    <path id="Path_862" data-name="Path 862" d="M109.684,52.383h-.561l-.017-.035-4.624-9.17v7.542c0,.4.076.64.232.739a1.873,1.873,0,0,0,.789.189l.055,0V52.1h-2.9v-.448l.055-.007c.374-.049.774-.122.894-.288a1.376,1.376,0,0,0,.128-.64V43.013a.9.9,0,0,0-.217-.711,1.622,1.622,0,0,0-.8-.183l-.06,0v-.47h2.314l.017.034,3.928,7.8V43.03a.9.9,0,0,0-.218-.728,1.5,1.5,0,0,0-.8-.183l-.06,0v-.47h2.917v.468l-.06,0c-.521.032-.824.131-.926.3a1.26,1.26,0,0,0-.09.612Z" transform="translate(-6.811 -2.763)"/>
    <path id="Path_863" data-name="Path 863" d="M123.2,52.1h-7.48V51.65l.06,0c.564-.034.885-.13,1.007-.3a1.024,1.024,0,0,0,.128-.591V43a.792.792,0,0,0-.286-.722,2.078,2.078,0,0,0-.85-.156l-.06,0v-.469h7.26v2.666h-.54l0-.058a2.562,2.562,0,0,0-.518-1.642,2.125,2.125,0,0,0-1.511-.428H119.23c-.527,0-.894.086-1,.238A1.045,1.045,0,0,0,118.1,43v3.3h1.274c.731,0,1.217-.123,1.4-.356a1.606,1.606,0,0,0,.307-1v-.06h.542v3.493h-.541l0-.06a1.54,1.54,0,0,0-.509-1.27,2.635,2.635,0,0,0-1.2-.205H118.1v3.914c0,.376.1.612.3.7a2.326,2.326,0,0,0,.85.11h1.2a2.006,2.006,0,0,0,1.879-.763,3.979,3.979,0,0,0,.349-1.475l.007-.058h.519Z" transform="translate(-7.677 -2.763)"/>
    <path id="Path_864" data-name="Path 864" d="M136.686,52.1h-2.155l-.018-.038c-.694-1.6-1.571-3.361-2.61-5.227h-1.077v3.915c0,.387.09.635.269.738a1.984,1.984,0,0,0,.808.158l.059,0V52.1H128.47V51.65l.059,0c.54-.034.865-.129.966-.287a1.073,1.073,0,0,0,.13-.609V43c0-.361-.083-.6-.249-.706a1.627,1.627,0,0,0-.845-.171l-.061,0v-.47H132a5.454,5.454,0,0,1,2.2.385,2.209,2.209,0,0,1,1.532,2.153c0,1.322-.875,2.175-2.6,2.537l2.112,3.986a1.724,1.724,0,0,0,1.389.941l.053.008Zm-5.859-5.8h1.153a2.6,2.6,0,0,0,1.792-.611,1.992,1.992,0,0,0,.616-1.505c0-1.345-.788-2-2.408-2a1.527,1.527,0,0,0-1.048.241c-.087.089-.1.283-.1.57Z" transform="translate(-8.523 -2.763)"/>
    <path id="Path_865" data-name="Path 865" d="M146.655,52.1h-3.632V51.65l.059,0c.579-.034.922-.142,1.048-.335a1.1,1.1,0,0,0,.107-.593V48.028l-2.423-5.022a1.511,1.511,0,0,0-1.187-.888l-.056-.007v-.464h3.354v.468l-.057,0c-.429.021-.939.111-.939.416a.987.987,0,0,0,.114.4l2.016,4.174,1.977-4.091a.9.9,0,0,0,.133-.417c0-.289-.342-.452-1.016-.482l-.06,0v-.469h3.016v.466l-.057.006a1.551,1.551,0,0,0-1.265.988L145.44,47.83v2.89a.828.828,0,0,0,.327.787,3,3,0,0,0,.828.141l.06,0Z" transform="translate(-9.326 -2.763)"/>
  </g>
</svg>
