<svg xmlns="http://www.w3.org/2000/svg" xmlns:xlink="http://www.w3.org/1999/xlink" width="217.386" height="60.95" viewBox="0 0 217.386 60.95">
  <defs>
    <clipPath id="clip-path">
      <rect id="Rectangle_1183" data-name="Rectangle 1183" width="217.386" height="60.95" fill="#000"/>
    </clipPath>
  </defs>
  <g id="banner_ec_sns" transform="translate(-5.915 -4.659)">
    <g id="Group_1489" data-name="Group 1489" transform="translate(5.915 4.659)" clip-path="url(#clip-path)">
      <path id="Path_787" data-name="Path 787" d="M9.928,68.371H5.88v-.547l.069-.005c.736-.056,1.141-.214,1.141-.446a1.812,1.812,0,0,0-.212-.61l-2.6-4.892L2.645,64.35v2.382c0,.46.074.726.238.863a2.366,2.366,0,0,0,.971.224l.073,0v.55H0v-.548l.071,0a1.65,1.65,0,0,0,1.086-.336,1.731,1.731,0,0,0,.15-.751V57.314a1.046,1.046,0,0,0-.259-.84,2.425,2.425,0,0,0-.979-.225L0,56.242v-.566H3.926v.568l-.069,0c-.713.048-.967.206-1.057.328a1.294,1.294,0,0,0-.155.738v5.641l3.439-5.581a1.571,1.571,0,0,0,.3-.7c0-.238-.336-.389-.946-.425l-.071,0v-.568H8.959v.562l-.065.01a2.555,2.555,0,0,0-1.881,1.226L5.077,60.6,8.346,66.7A2.008,2.008,0,0,0,9.864,67.82l.064.01Z" transform="translate(0 -7.588)" fill="#000"/>
      <path id="Path_788" data-name="Path 788" d="M19.7,68.56A3.5,3.5,0,0,1,16.548,67.1a4.113,4.113,0,0,1-.6-2.27v-7.35c0-.472-.09-.758-.273-.876a2.325,2.325,0,0,0-.934-.2l-.068-.007v-.552h4v.554L18.6,56.4c-.6.038-.954.155-1.074.354a1.35,1.35,0,0,0-.156.726v7.35c0,1.95.825,2.9,2.523,2.9A2.406,2.406,0,0,0,22.3,66.3a3.73,3.73,0,0,0,.3-1.59V57.477c0-.449-.1-.751-.3-.876a2.222,2.222,0,0,0-.957-.2l-.069-.007v-.552h3.455v.554l-.069.005c-.561.038-.907.152-1.029.338a1.294,1.294,0,0,0-.153.742v7.234a3.849,3.849,0,0,1-.844,2.608A3.608,3.608,0,0,1,19.7,68.56" transform="translate(-1.999 -7.61)" fill="#000"/>
      <path id="Path_789" data-name="Path 789" d="M57.268,68.37h-4v-.534l.068-.005c.55-.038,1.206-.171,1.206-.59a1.614,1.614,0,0,0-.113-.561L53.595,63.8h-3.36l-.9,2.861a2.036,2.036,0,0,0-.115.544c0,.364.414.576,1.228.631l.069.005v.534H47.178v-.526l.06-.011a1.585,1.585,0,0,0,1.22-1.24L51.9,55.669h.654l.016.052,3.353,10.93a1.488,1.488,0,0,0,1.283,1.18l.067.009Zm-6.845-5.232h2.941L51.949,58.2Z" transform="translate(-6.43 -7.587)" fill="#000"/>
      <path id="Path_790" data-name="Path 790" d="M216.259,68.359h-4v-.534l.068-.005c.55-.038,1.206-.171,1.206-.59a1.615,1.615,0,0,0-.113-.561l-.837-2.884h-3.36l-.9,2.861a2.035,2.035,0,0,0-.115.544c0,.364.413.576,1.228.63l.069.005v.534h-3.337v-.526l.06-.011a1.585,1.585,0,0,0,1.22-1.24l3.438-10.923h.654l.016.052,3.353,10.93a1.488,1.488,0,0,0,1.283,1.18l.067.009Zm-6.845-5.232h2.941l-1.415-4.941Z" transform="translate(-28.098 -7.586)" fill="#000"/>
      <path id="Path_791" data-name="Path 791" d="M132.355,68.367h-.667l-.011-.062L130,59.076l-1.8,9.291h-.713l-.012-.064L125.7,57.335c-.115-.7-.378-1.077-.787-1.131l-.065-.009v-.548h2.937V56.2l-.069.007c-.473.036-.713.249-.713.629a3.1,3.1,0,0,0,.047.477l1.071,7.389,1.448-7.4-.069-.437a.811.811,0,0,0-.852-.66l-.07-.006v-.553h3.029V56.2l-.069.006c-.731.053-.731.383-.731.493a2.876,2.876,0,0,0,.066.453l1.341,7.4,1.09-7.277a2.763,2.763,0,0,0,.045-.42c0-.468-.491-.611-.9-.649l-.07-.007v-.552h2.652v.547l-.061.01c-.449.076-.724.448-.809,1.11Z" transform="translate(-17.016 -7.584)" fill="#000"/>
      <path id="Path_792" data-name="Path 792" d="M146.093,68.371h-4.75v-.548l.071,0a2.288,2.288,0,0,0,1.354-.358,1.145,1.145,0,0,0,.2-.768V57.356c0-.507-.145-.8-.459-.933a3.168,3.168,0,0,0-1.087-.174l-.073,0v-.57h4.75v.568l-.074,0a2.123,2.123,0,0,0-1.347.355,1.036,1.036,0,0,0-.2.752v9.337c0,.511.15.822.462.951a4.7,4.7,0,0,0,1.086.175l.074,0Z" transform="translate(-19.263 -7.588)" fill="#000"/>
      <path id="Path_793" data-name="Path 793" d="M159.61,68.367h-.665l-.02-.041L153.447,57.46V66.4c0,.471.089.757.274.875a2.209,2.209,0,0,0,.935.224l.066.005v.534H151.29V67.5l.066-.009c.444-.059.917-.145,1.059-.341a1.623,1.623,0,0,0,.151-.757V57.265a1.065,1.065,0,0,0-.256-.842,1.928,1.928,0,0,0-.948-.218l-.072,0v-.556h2.742l.019.039,4.655,9.243V57.284a1.057,1.057,0,0,0-.259-.862,1.776,1.776,0,0,0-.948-.218l-.07,0v-.556h3.455V56.2l-.07.005c-.618.038-.978.155-1.1.354a1.5,1.5,0,0,0-.105.725Z" transform="translate(-20.619 -7.584)" fill="#000"/>
      <path id="Path_794" data-name="Path 794" d="M176.87,68.381h-9.036v-.546l.073,0c.682-.041,1.069-.156,1.217-.368a1.234,1.234,0,0,0,.155-.713V57.38a.957.957,0,0,0-.345-.871,2.53,2.53,0,0,0-1.026-.188l-.073,0V55.75H176.6v3.221h-.652l-.005-.07a3.09,3.09,0,0,0-.627-1.984A2.565,2.565,0,0,0,173.5,56.4h-1.422c-.637,0-1.081.1-1.214.288a1.266,1.266,0,0,0-.155.692v3.991h1.537c.884,0,1.472-.149,1.7-.43a1.945,1.945,0,0,0,.371-1.212v-.073h.656v4.219h-.654l0-.072a1.863,1.863,0,0,0-.615-1.535,3.19,3.19,0,0,0-1.453-.248h-1.537V66.75c0,.454.123.739.365.848a2.777,2.777,0,0,0,1.026.134h1.446a2.425,2.425,0,0,0,2.27-.922,4.806,4.806,0,0,0,.421-1.782l.009-.07h.627Z" transform="translate(-22.874 -7.598)" fill="#000"/>
      <path id="Path_795" data-name="Path 795" d="M231.841,68.361h-2.615l-.022-.047c-.841-1.943-1.906-4.078-3.165-6.341h-1.306v4.75c0,.469.109.77.326.895a2.4,2.4,0,0,0,.979.191l.072,0v.549h-4.237v-.548l.071,0c.655-.041,1.049-.156,1.173-.347a1.313,1.313,0,0,0,.157-.738V57.313c0-.44-.1-.727-.3-.856a1.974,1.974,0,0,0-1.025-.208l-.073,0v-.569h4.283a6.644,6.644,0,0,1,2.666.466,2.682,2.682,0,0,1,1.859,2.613c0,1.6-1.061,2.64-3.152,3.078l2.562,4.836a2.1,2.1,0,0,0,1.686,1.142l.065.009Zm-7.108-7.04h1.4a3.144,3.144,0,0,0,2.174-.741,2.416,2.416,0,0,0,.746-1.826c0-1.632-.955-2.425-2.92-2.425a1.858,1.858,0,0,0-1.272.292c-.105.108-.127.344-.127.692Z" transform="translate(-30.238 -7.588)" fill="#000"/>
      <path id="Path_796" data-name="Path 796" d="M83.979,55.677c-2.671,0-4.764,2.826-4.764,6.434,0,3.628,1.986,6.26,4.721,6.26,2.672,0,4.766-2.817,4.766-6.415,0-3.639-1.986-6.279-4.723-6.279m3.233,6.491c0,3.151-1.329,5.352-3.233,5.352-1.626,0-3.274-1.931-3.274-5.62,0-3.151,1.323-5.352,3.217-5.352,1.635,0,3.29,1.931,3.29,5.62" transform="translate(-10.796 -7.588)" fill="#000"/>
      <path id="Path_797" data-name="Path 797" d="M112.513,55.646c-2.678,0-4.775,2.832-4.775,6.447,0,3.635,1.99,6.274,4.731,6.274,2.678,0,4.775-2.823,4.775-6.428,0-3.647-1.99-6.293-4.732-6.293m3.239,6.5c0,3.158-1.332,5.362-3.239,5.362-1.631,0-3.282-1.934-3.282-5.631,0-3.157,1.326-5.362,3.224-5.362,1.638,0,3.3,1.935,3.3,5.631" transform="translate(-14.683 -7.584)" fill="#000"/>
      <path id="Path_798" data-name="Path 798" d="M102.411,55.677H94.376a.1.1,0,0,0-.095.088l-.256,3.842a.1.1,0,0,0,.026.072.094.094,0,0,0,.069.029H94.8a.094.094,0,0,0,.093-.078l.405-2.238c.145-.649.248-.787,2.326-.787l.01,10.591c0,.064,0,.143-.308.186L96.3,67.5a.1.1,0,0,0-.083.088l-.045.681a.093.093,0,0,0,.025.072.1.1,0,0,0,.069.029h4.146a.1.1,0,0,0,.069-.029.093.093,0,0,0,.025-.072l-.045-.681a.1.1,0,0,0-.083-.088l-1.02-.119c-.309-.041-.309-.093-.309-.166V56.605h.009c2.116.02,2.158.248,2.281.922l.331,2.1a.1.1,0,0,0,.093.079h.645a.094.094,0,0,0,.094-.1V55.771a.094.094,0,0,0-.094-.094" transform="translate(-12.814 -7.588)" fill="#000"/>
      <path id="Path_799" data-name="Path 799" d="M36.3,65.248l-2.277-8.339c-.036-.172-.235-.48.386-.5l.069,0v-.562H30.452V56.4l.067.008c.62.077,1.022.146,1.347.776l.025.084a2.862,2.862,0,0,1,.065.877l-.376,8.53c-.034.71-.766,1.066-1.229,1.144l-.063.01v.564h3.419v-.569l-.072-.007c-.422-.039-1.2-.186-1.2-.669,0-.041.344-9.577.344-9.577l2.824,10.357a.092.092,0,0,0,.089.069h.615a.093.093,0,0,0,.09-.069l2.87-10.6s.246,9.721.246,9.86c0,.386-.392.6-.871.637l-.07.007v.56h3.663v-.555l-.065-.009c-.415-.055-1.226-.488-1.253-1.216-.025-.658-.472-8.747-.245-9.432s.726-.7,1.347-.776l.067-.008v-.557H38.06V56.4l.069,0c.62.019.422.328.386.5Z" transform="translate(-4.128 -7.61)" fill="#000"/>
      <path id="Path_800" data-name="Path 800" d="M68.929,65.192l-2.3-8.432c-.036-.174-.237-.485.39-.505l.07,0v-.568H63.014v.563l.068.008c.627.078,1.033.148,1.361.785l.025.086a2.856,2.856,0,0,1,.067.886l-.38,8.625c-.035.719-.775,1.078-1.243,1.157l-.064.011v.57h3.457V67.8l-.073-.008c-.426-.039-1.212-.187-1.212-.675,0-.041.347-9.684.347-9.684L68.225,67.9a.092.092,0,0,0,.09.069h.623a.092.092,0,0,0,.09-.069l2.9-10.719s.249,9.831.249,9.971c0,.39-.4.608-.882.644l-.071.008v.566h3.7V67.81l-.066-.009c-.42-.055-1.239-.493-1.267-1.23-.026-.665-.477-8.844-.248-9.536s.734-.707,1.361-.786l.068-.007v-.564H70.707v.568l.07,0c.627.02.427.332.39.505Z" transform="translate(-8.565 -7.588)" fill="#000"/>
      <path id="Path_801" data-name="Path 801" d="M243.825,65.21l-2.289-8.384c-.036-.172-.236-.482.388-.5l.07,0v-.565h-4.049v.561l.067.007c.624.078,1.027.147,1.353.781l.025.085a2.859,2.859,0,0,1,.066.881l-.377,8.576c-.035.713-.77,1.071-1.235,1.15l-.064.01v.567h3.438V67.8l-.073-.007c-.423-.039-1.2-.187-1.2-.672,0-.041.345-9.628.345-9.628l2.839,10.412a.094.094,0,0,0,.09.069h.619a.093.093,0,0,0,.089-.069l2.886-10.656s.248,9.774.248,9.913c0,.388-.394.6-.877.641l-.07.007v.562h3.683v-.558l-.066-.01c-.417-.055-1.232-.491-1.26-1.223-.025-.662-.473-8.793-.246-9.482s.73-.7,1.353-.78l.067-.008v-.561h-4.048v.566l.069,0c.624.02.425.33.389.5Z" transform="translate(-32.406 -7.598)" fill="#000"/>
      <path id="Path_802" data-name="Path 802" d="M192.638,55.751v.568l.073,0a2.54,2.54,0,0,1,1.028.188.961.961,0,0,1,.346.874v9.387a1.238,1.238,0,0,1-.155.715.748.748,0,0,1-.413.249c-.078.024-.33.072-.363.076-.131.019-.278.034-.444.043,0,0-.073,0-.092.008v.51h4.414v-.51s-.55-.043-.786-.092a.754.754,0,0,1-.611-.385,1.663,1.663,0,0,1-.118-.681c0-.045,0-4.668,0-4.668h1.541a3.184,3.184,0,0,1,1.455.249,1.864,1.864,0,0,1,.617,1.537l0,.072h.654V59.664h-.656v.073a1.951,1.951,0,0,1-.371,1.214c-.226.282-.815.431-1.7.431h-1.541v-4a1.267,1.267,0,0,1,.156-.694c.133-.185.578-.288,1.215-.288h1.424a2.574,2.574,0,0,1,1.829.517,3.1,3.1,0,0,1,.628,1.988l.005.07h.653V55.751Z" transform="translate(-26.251 -7.598)" fill="#000"/>
      <path id="Path_803" data-name="Path 803" d="M65.406,29.679c-.069,0-.14,0-.206,0l-.177,0c-.65-.013-1.542-.029-1.542-.533a1.638,1.638,0,0,1,.863-1.259l.136-.1c4.345-3.128,9.368-4.24,14.147-4.974.269-.042.535-.078.8-.114.163-.023.328-.047.491-.068.082-.009,7.412-.588,8.645-.691,1.954-.164,3.863-.333,5.763-.612.032,0,2.782-.333,3.286-.407,1.048-.155,2.152-.3,3.324-.448,1.876-.239,3.816-.488,5.735-.823A179.434,179.434,0,0,0,135.143,12.7a8.11,8.11,0,0,0,3.717-3.218c.08-.149.166-.3.253-.455l.082-.146c.034-.073.054-.119.054-.12l.011,0c1.464-2.625,3.067-5.11,4.443-7.2C144.667.1,145.615-.339,146.429.257c.764.558.983,2.161.89,3.071-.234,2.341-1.756,4.074-3.212,5.461a17.908,17.908,0,0,1-2.144,1.817c.057-.023.108-.041.149-.057.266-.093.5-.179.719-.257.44-.16.822-.3,1.253-.434.279-.086.631-.218,1.007-.357.588-.218,1.256-.466,1.8-.606a22.691,22.691,0,0,1,5.37-.888h.041c1.678,0,2.588.779,2.745,1.553a1.635,1.635,0,0,1-1.186,1.771l-.1.043-.05-.1c-.059-.1-.114-.189-.167-.269a2.449,2.449,0,0,1-.247-.441,1.66,1.66,0,0,0-1.851-1.214c-.072,0-.193.006-.352.008a14.615,14.615,0,0,0-2.935.248,24.855,24.855,0,0,0-4.3,1.48c-.692.3-1.553.662-2.849,1.179l-1.2.677c.47.969,3.3,4.313,5.235,5.041a17.665,17.665,0,0,0,3.581.52.76.76,0,0,0,.206-.015,4.237,4.237,0,0,0,1.409-.8c.1-.073.193-.148.292-.22a7,7,0,0,0,.888-.872c.476-1.03,1.188-2.511,1.3-2.754-.047-.391.344-.669.632-.874a2.741,2.741,0,0,0,.231-.174l.078-.07.079.065a2.831,2.831,0,0,0,.323.212,1.381,1.381,0,0,1,.591.513l.018.036-.293,1.3c-.875,1.045-3.026,4.909-2.364,5.689a1.428,1.428,0,0,0,.959.315,1.091,1.091,0,0,0,.348-.048,13.628,13.628,0,0,0,2.141-1.06l.311-.178c.214-.678.658-1.942.8-2.31l.741-1.864a3.627,3.627,0,0,1,1.155-1.632l.112-.082.065.123a2.691,2.691,0,0,0,.218.323,1.976,1.976,0,0,1,.506,1.348l-.012.047-.708,1.37a13.7,13.7,0,0,0-.951,1.836c-.229.483-.443.944-.615,1.254.1,0,.193.005.288.009.111,0,.221.009.329.009a1.584,1.584,0,0,0,.674-.117,10.4,10.4,0,0,0,1.57-.991l.258-.193.988-1.594c.4-.692.682-1.068,1.1-1.182l.1-.028.041.092a2.773,2.773,0,0,0,.15.268,1.826,1.826,0,0,1,.335,1.3l0,.033-.638.808c-.352.425-.675.882-.987,1.325-.1.143-.2.286-.3.428a.893.893,0,0,0,.736.276,5.146,5.146,0,0,0,1.839-.494c.795-.353,5.248-2.627,5.993-3.1l.139.2c-1.708,1.39-6.391,4.253-7.482,4.474-1.226.248-2.067.111-2.438-.394a1.251,1.251,0,0,1-.117-1.149l0-.01a6.091,6.091,0,0,1-2.557,1.545c-.818.131-1.356-.161-1.468-.784a6.687,6.687,0,0,1-3.193,1.376h-.033a1.753,1.753,0,0,1-1.9-1.959,4.553,4.553,0,0,1,.126-.986,3.254,3.254,0,0,1-1.712.429c-.2-.007-.412-.01-.634-.011a8.948,8.948,0,0,1-5.637-1.6,13.421,13.421,0,0,1-1.294-1.055c-.231-.208-.422-.412-.646-.648-.108-.116-.224-.241-.359-.378-.346-.364-1.754-2.221-1.965-2.5a.985.985,0,0,1-.135-.043,8.45,8.45,0,0,0-1.036,1.864,23.573,23.573,0,0,1-1.126,2.265c-.2.361-.395.732-.6,1.121l-.623,1.043c-.371.675-.668,1.286-.928,1.824a14.8,14.8,0,0,1-1.021,1.888,3.9,3.9,0,0,0-.206.361,2.31,2.31,0,0,1-.517.75,2.131,2.131,0,0,1-1.417.474l-.138-.011.031-.135c.031-.148.051-.3.07-.459a2.622,2.622,0,0,1,.267-1c1.233-2.082,2.513-4.181,3.749-6.213q.939-1.546,1.875-3.09a4.013,4.013,0,0,0,.276-.6c.023-.06.048-.122.073-.187q-1.163.381-2.29.758c-1.815.6-3.529,1.174-5.288,1.685A222.4,222.4,0,0,1,97.7,22.1l-1.641.173c-.272.015-1.05.112-1.565.178-.268.032-.478.06-.544.065q-4.843.437-9.681.895l-2.841.328A33.478,33.478,0,0,0,67.91,27.369c-1.662.947-1.628,1.754-1.628,1.763l.025.351-.091-.1c-.166.3-.618.3-.81.3M145.534,1.727c-2.774,2.207-4.208,5.313-5.594,8.315-.09.19-.175.38-.263.57,2.479-1.338,4.883-3,6.039-5.866a2.71,2.71,0,0,0-.182-3.019" transform="translate(-8.652 0)" fill="#000"/>
    </g>
  </g>
</svg>
