<svg id="グループ_1764" data-name="グループ 1764" xmlns="http://www.w3.org/2000/svg" xmlns:xlink="http://www.w3.org/1999/xlink" width="763.083" height="134.076" viewBox="0 0 763.083 134.076">
  <defs>
    <clipPath id="clip-path">
      <rect id="長方形_1304" data-name="長方形 1304" width="763.083" height="134.076" fill="none"/>
    </clipPath>
  </defs>
  <rect id="長方形_1298" data-name="長方形 1298" width="654.549" height="83" transform="translate(49.056 39.638)" fill="none" stroke="#624636" stroke-miterlimit="10" stroke-width="1.417"/>
  <rect id="長方形_1299" data-name="長方形 1299" width="62.666" height="79.827" transform="translate(659.912 11.871)" fill="#fff"/>
  <rect id="長方形_1300" data-name="長方形 1300" width="91.523" height="32.62" transform="translate(628.671 100.869)" fill="#fff"/>
  <rect id="長方形_1301" data-name="長方形 1301" width="38.381" height="32.62" transform="translate(65.384 100.869)" fill="#fff"/>
  <rect id="長方形_1302" data-name="長方形 1302" width="40.001" height="28.906" transform="translate(26.701 81.774)" fill="#fff"/>
  <rect id="長方形_1303" data-name="長方形 1303" width="94.652" height="79.153" transform="translate(33.736 28.372)" fill="#fff"/>
  <text id="山鹿探訪なび" transform="translate(341.322 92.769)" fill="#624636" font-size="27" font-family="YuGothicUI-Regular, Yu Gothic UI"><tspan x="0" y="0" letter-spacing="0.199em">山鹿探</tspan><tspan y="0" letter-spacing="0.147em">訪</tspan><tspan y="0" letter-spacing="0.102em">な</tspan><tspan y="0">び</tspan></text>
  <text id="観光ガイドサイト" transform="translate(168.019 92.769)" fill="#624636" font-size="19" font-family="YuGothicUI-Regular, Yu Gothic UI"><tspan x="0" y="0" letter-spacing="0.199em">観</tspan><tspan y="0" letter-spacing="0.152em">光</tspan><tspan y="0" letter-spacing="0.085em">ガ</tspan><tspan y="0" letter-spacing="-0.136em">イ</tspan><tspan y="0" letter-spacing="0.083em">ド</tspan><tspan y="0" letter-spacing="0.011em">サ</tspan><tspan y="0" letter-spacing="-0.154em">イ</tspan><tspan y="0">ト</tspan></text>
  <g id="グループ_1763" data-name="グループ 1763">
    <g id="グループ_1762" data-name="グループ 1762" clip-path="url(#clip-path)">
      <text id="山鹿の魅力満載_" data-name="山鹿の魅力満載！" transform="translate(290.88 17.598)" fill="#624636" font-size="20" font-family="YuGothic-Bold, Yu Gothic" font-weight="700"><tspan x="0" y="0" letter-spacing="0.199em">山</tspan><tspan y="0" letter-spacing="0.19em">鹿</tspan><tspan y="0" letter-spacing="0.192em">の</tspan><tspan y="0" letter-spacing="0.199em">魅力満</tspan><tspan y="0" letter-spacing="-0.05em">載</tspan><tspan y="0">！</tspan></text>
      <path id="パス_982" data-name="パス 982" d="M676.9,108a15.747,15.747,0,0,1,26.081,0,18.567,18.567,0,0,1,3.131-.445,18.639,18.639,0,0,0-32.343,0A18.538,18.538,0,0,1,676.9,108" fill="#efc984"/>
      <path id="パス_983" data-name="パス 983" d="M689.944,107.377A9.446,9.446,0,0,1,697,110.542a18.671,18.671,0,0,1,2.595-1.411,12.342,12.342,0,0,0-19.3,0,18.666,18.666,0,0,1,2.595,1.41,9.442,9.442,0,0,1,7.056-3.164" fill="#efc984"/>
      <path id="パス_984" data-name="パス 984" d="M689.944,113.67a3.171,3.171,0,0,1,2.435,1.14,18.807,18.807,0,0,1,1.949-2.158,6.056,6.056,0,0,0-8.767,0,18.81,18.81,0,0,1,1.95,2.158,3.17,3.17,0,0,1,2.433-1.139" fill="#efc984"/>
      <path id="パス_985" data-name="パス 985" d="M642.488,108a15.747,15.747,0,0,1,26.081,0,18.553,18.553,0,0,1,3.131-.445,18.639,18.639,0,0,0-32.343,0,18.537,18.537,0,0,1,3.131.445" fill="#efc984"/>
      <path id="パス_986" data-name="パス 986" d="M655.528,107.377a9.446,9.446,0,0,1,7.057,3.164,18.666,18.666,0,0,1,2.595-1.41,12.341,12.341,0,0,0-19.3,0,18.605,18.605,0,0,1,2.594,1.411,9.443,9.443,0,0,1,7.057-3.165" fill="#efc984"/>
      <path id="パス_987" data-name="パス 987" d="M655.528,113.67a3.171,3.171,0,0,1,2.434,1.139,18.715,18.715,0,0,1,1.949-2.157,6.054,6.054,0,0,0-8.766,0,18.649,18.649,0,0,1,1.95,2.158,3.167,3.167,0,0,1,2.433-1.14" fill="#efc984"/>
      <path id="パス_988" data-name="パス 988" d="M702.985,108a18.422,18.422,0,0,0-3.389,1.13,18.7,18.7,0,0,0-5.268,3.521,18.678,18.678,0,0,0-3.345,4.243,18.539,18.539,0,0,1,3.131.445,15.748,15.748,0,0,1,26.079,0,18.642,18.642,0,0,1,3.131-.445,18.666,18.666,0,0,0-16.171-9.368c-.348,0-.694.011-1.037.03a18.538,18.538,0,0,0-3.131.445" fill="#efc984"/>
      <path id="パス_989" data-name="パス 989" d="M707.154,113.821a12.343,12.343,0,0,0-9.65,4.648,18.606,18.606,0,0,1,2.594,1.411,9.452,9.452,0,0,1,14.112,0,18.672,18.672,0,0,1,2.595-1.411,12.344,12.344,0,0,0-9.651-4.648" fill="#efc984"/>
      <path id="パス_990" data-name="パス 990" d="M707.154,120.115a6.051,6.051,0,0,0-4.382,1.877,18.907,18.907,0,0,1,1.95,2.158,3.168,3.168,0,0,1,4.865,0,18.807,18.807,0,0,1,1.949-2.158,6.05,6.05,0,0,0-4.382-1.876" fill="#efc984"/>
      <path id="パス_991" data-name="パス 991" d="M634.154,108a18.406,18.406,0,0,0-3.39,1.13,18.666,18.666,0,0,0-2.595,1.41,18.779,18.779,0,0,0-6.019,6.354,18.54,18.54,0,0,1,3.131.445,15.747,15.747,0,0,1,26.078,0,18.568,18.568,0,0,1,3.131-.445,18.663,18.663,0,0,0-15.133-9.339c-.343-.019-.689-.03-1.037-.03s-.692.011-1.036.03a18.527,18.527,0,0,0-3.13.445" fill="#efc984"/>
      <path id="パス_992" data-name="パス 992" d="M638.32,116.717a9.445,9.445,0,0,1,7.056,3.163,18.669,18.669,0,0,1,2.6-1.411,12.343,12.343,0,0,0-19.3,0,18.669,18.669,0,0,1,2.6,1.411,9.446,9.446,0,0,1,7.055-3.163" fill="#efc984"/>
      <path id="パス_993" data-name="パス 993" d="M638.32,123.011a3.169,3.169,0,0,1,2.433,1.138,18.9,18.9,0,0,1,1.949-2.158,6.055,6.055,0,0,0-8.763,0,18.812,18.812,0,0,1,1.949,2.158,3.167,3.167,0,0,1,2.432-1.138" fill="#efc984"/>
      <path id="パス_994" data-name="パス 994" d="M704.721,124.15a18.869,18.869,0,0,0-4.623-4.269,18.669,18.669,0,0,0-2.6-1.411,18.667,18.667,0,0,0-6.519-1.575c-.345-.019-.691-.031-1.04-.031s-.694.011-1.037.03a18.714,18.714,0,0,0-15.134,9.341,18.538,18.538,0,0,1,3.131.445,15.747,15.747,0,0,1,26.081,0,18.567,18.567,0,0,1,3.131-.445,18.7,18.7,0,0,0-1.4-2.085" fill="#efc984"/>
      <path id="パス_995" data-name="パス 995" d="M689.944,123.16a12.341,12.341,0,0,0-9.651,4.65,18.667,18.667,0,0,1,2.595,1.41,9.451,9.451,0,0,1,14.114,0,18.672,18.672,0,0,1,2.595-1.411,12.345,12.345,0,0,0-9.653-4.65" fill="#efc984"/>
      <path id="パス_996" data-name="パス 996" d="M689.944,129.453a6.05,6.05,0,0,0-4.383,1.878,18.717,18.717,0,0,1,1.95,2.157,3.169,3.169,0,0,1,4.868,0,18.816,18.816,0,0,1,1.95-2.158,6.053,6.053,0,0,0-4.385-1.878" fill="#efc984"/>
      <path id="パス_997" data-name="パス 997" d="M687.511,114.809a18.87,18.87,0,0,0-4.623-4.269,18.671,18.671,0,0,0-2.595-1.411,18.668,18.668,0,0,0-6.519-1.575c-.345-.019-.691-.031-1.04-.031s-.694.011-1.037.03a18.585,18.585,0,0,0-9.115,2.986,18.763,18.763,0,0,0-6.019,6.355,18.539,18.539,0,0,1,3.131.445,15.747,15.747,0,0,1,26.081,0,18.568,18.568,0,0,1,3.131-.445,18.7,18.7,0,0,0-1.4-2.085" fill="#efc984"/>
      <path id="パス_998" data-name="パス 998" d="M672.734,113.819a12.341,12.341,0,0,0-9.651,4.65,18.667,18.667,0,0,1,2.595,1.41,9.451,9.451,0,0,1,14.114,0,18.669,18.669,0,0,1,2.6-1.411,12.345,12.345,0,0,0-9.653-4.65" fill="#efc984"/>
      <path id="パス_999" data-name="パス 999" d="M672.734,120.112a6.05,6.05,0,0,0-4.383,1.878,18.728,18.728,0,0,1,1.95,2.157,3.169,3.169,0,0,1,4.868,0,18.815,18.815,0,0,1,1.95-2.158,6.053,6.053,0,0,0-4.385-1.878" fill="#efc984"/>
      <path id="パス_1000" data-name="パス 1000" d="M647.971,118.469a18.757,18.757,0,0,0-8.614,7.766,18.551,18.551,0,0,1,3.131.445,15.748,15.748,0,0,1,26.081,0,18.67,18.67,0,0,1,3.131-.444,18.7,18.7,0,0,0-3.346-4.244,18.592,18.592,0,0,0-8.657-4.652,18.539,18.539,0,0,0-3.131-.445c-.344-.019-.689-.03-1.038-.03s-.694.011-1.038.03a18.667,18.667,0,0,0-6.519,1.575" fill="#efc984"/>
      <path id="パス_1001" data-name="パス 1001" d="M655.528,123.16a12.341,12.341,0,0,0-9.651,4.65,18.6,18.6,0,0,1,2.594,1.41,9.452,9.452,0,0,1,14.114,0,18.563,18.563,0,0,1,2.595-1.41,12.341,12.341,0,0,0-9.652-4.65" fill="#efc984"/>
      <path id="パス_1002" data-name="パス 1002" d="M655.528,129.453a6.05,6.05,0,0,0-4.383,1.878,18.745,18.745,0,0,1,1.95,2.158,3.167,3.167,0,0,1,4.867,0,18.656,18.656,0,0,1,1.95-2.158,6.052,6.052,0,0,0-4.384-1.878" fill="#efc984"/>
      <path id="パス_1003" data-name="パス 1003" d="M98.621,22.832H55.164a5.144,5.144,0,1,0,0,10.288H98.621a5.144,5.144,0,0,0,0-10.288" fill="#bee3e1"/>
      <path id="パス_1004" data-name="パス 1004" d="M113.875,38.264H5.144a5.144,5.144,0,1,0,0,10.288H113.875a5.144,5.144,0,0,0,0-10.288" fill="#bee3e1"/>
      <path id="パス_1005" data-name="パス 1005" d="M82.569,35.692a2.572,2.572,0,0,1,2.572-2.572H71.926a2.572,2.572,0,0,1,0,5.144H85.141a2.572,2.572,0,0,1-2.572-2.572" fill="#bee3e1"/>
      <path id="パス_1006" data-name="パス 1006" d="M22.438,63.983H65.895a5.144,5.144,0,1,0,0-10.288H22.438a5.144,5.144,0,0,0,0,10.288" fill="#bee3e1"/>
      <path id="パス_1007" data-name="パス 1007" d="M38.491,51.123a2.573,2.573,0,0,1-2.572,2.572H49.134a2.572,2.572,0,0,1,0-5.144H35.919a2.573,2.573,0,0,1,2.572,2.572" fill="#bee3e1"/>
      <path id="パス_1008" data-name="パス 1008" d="M745.863,61.3H709.176a4.343,4.343,0,1,0,0,8.685h36.687a4.343,4.343,0,1,0,0-8.685" fill="#bee3e1"/>
      <path id="パス_1009" data-name="パス 1009" d="M758.741,74.328H666.948a4.342,4.342,0,1,0,0,8.685h91.793a4.342,4.342,0,1,0,0-8.685" fill="#bee3e1"/>
      <path id="パス_1010" data-name="パス 1010" d="M732.311,72.157a2.171,2.171,0,0,1,2.171-2.171H723.326a2.171,2.171,0,1,1,0,4.342h11.156a2.171,2.171,0,0,1-2.171-2.171" fill="#bee3e1"/>
      <path id="パス_1011" data-name="パス 1011" d="M681.548,96.041h36.687a4.342,4.342,0,1,0,0-8.685H681.548a4.342,4.342,0,1,0,0,8.685" fill="#bee3e1"/>
      <path id="パス_1012" data-name="パス 1012" d="M695.1,85.185a2.171,2.171,0,0,1-2.171,2.171h11.156a2.171,2.171,0,1,1,0-4.342H692.928a2.171,2.171,0,0,1,2.171,2.171" fill="#bee3e1"/>
      <path id="パス_1013" data-name="パス 1013" d="M92.069,112.771a7.584,7.584,0,1,1-7.584-7.584,7.584,7.584,0,0,1,7.584,7.584" fill="#d86c82"/>
      <path id="パス_1014" data-name="パス 1014" d="M79.616,110.8a7.584,7.584,0,1,1-9.557,4.869,7.583,7.583,0,0,1,9.557-4.869" fill="#d86c82"/>
      <path id="パス_1015" data-name="パス 1015" d="M73.891,122.033a7.584,7.584,0,1,1,1.678,10.594,7.584,7.584,0,0,1-1.678-10.594" fill="#d86c82"/>
      <path id="パス_1016" data-name="パス 1016" d="M82.807,130.949A7.584,7.584,0,1,1,93.4,132.627a7.584,7.584,0,0,1-10.594-1.678" fill="#d86c82"/>
      <path id="パス_1017" data-name="パス 1017" d="M94.042,125.225a7.584,7.584,0,1,1,4.869-9.557,7.585,7.585,0,0,1-4.869,9.557" fill="#d86c82"/>
      <path id="パス_1018" data-name="パス 1018" d="M85.953,115.672a1.468,1.468,0,1,1-1.468-1.468,1.468,1.468,0,0,1,1.468,1.468" fill="#fff"/>
      <path id="パス_1019" data-name="パス 1019" d="M81.163,116.743a1.468,1.468,0,1,1-2.005.537,1.467,1.467,0,0,1,2.005-.537" fill="#fff"/>
      <path id="パス_1020" data-name="パス 1020" d="M79.695,121.426a1.468,1.468,0,1,1-.537,2,1.468,1.468,0,0,1,.537-2" fill="#fff"/>
      <path id="パス_1021" data-name="パス 1021" d="M83.017,125.039a1.468,1.468,0,1,1,1.468,1.468,1.468,1.468,0,0,1-1.468-1.468" fill="#fff"/>
      <path id="パス_1022" data-name="パス 1022" d="M87.807,123.968a1.468,1.468,0,1,1,2-.537,1.467,1.467,0,0,1-2,.537" fill="#fff"/>
      <path id="パス_1023" data-name="パス 1023" d="M89.275,119.285a1.468,1.468,0,1,1,.537-2.005,1.468,1.468,0,0,1-.537,2.005" fill="#fff"/>
      <path id="パス_1024" data-name="パス 1024" d="M706.628,37.223a12.641,12.641,0,1,1-12.64-12.64,12.64,12.64,0,0,1,12.64,12.64" fill="#c31d25"/>
      <path id="パス_1025" data-name="パス 1025" d="M685.872,33.936a12.64,12.64,0,1,1-15.928,8.116,12.641,12.641,0,0,1,15.928-8.116" fill="#c31d25"/>
      <path id="パス_1026" data-name="パス 1026" d="M676.331,52.66a12.641,12.641,0,1,1,2.8,17.656,12.639,12.639,0,0,1-2.8-17.656" fill="#c31d25"/>
      <path id="パス_1027" data-name="パス 1027" d="M691.191,67.519a12.641,12.641,0,1,1,17.656,2.8,12.641,12.641,0,0,1-17.656-2.8" fill="#c31d25"/>
      <path id="パス_1028" data-name="パス 1028" d="M709.915,57.979a12.64,12.64,0,1,1,8.116-15.928,12.641,12.641,0,0,1-8.116,15.928" fill="#c31d25"/>
      <line id="線_91" data-name="線 91" y2="20.393" transform="translate(693.987 39.469)" fill="none" stroke="#fff" stroke-miterlimit="10" stroke-width="0.457"/>
      <line id="線_92" data-name="線 92" x2="10.196" y2="17.661" transform="translate(688.889 40.835)" fill="none" stroke="#fff" stroke-miterlimit="10" stroke-width="0.457"/>
      <line id="線_93" data-name="線 93" x2="17.661" y2="10.196" transform="translate(685.157 44.567)" fill="none" stroke="#fff" stroke-miterlimit="10" stroke-width="0.457"/>
      <line id="線_94" data-name="線 94" x2="20.393" transform="translate(683.791 49.665)" fill="none" stroke="#fff" stroke-miterlimit="10" stroke-width="0.457"/>
      <line id="線_95" data-name="線 95" y1="10.196" x2="17.661" transform="translate(685.157 44.567)" fill="none" stroke="#fff" stroke-miterlimit="10" stroke-width="0.457"/>
      <line id="線_96" data-name="線 96" y1="17.661" x2="10.196" transform="translate(688.889 40.834)" fill="none" stroke="#fff" stroke-miterlimit="10" stroke-width="0.457"/>
      <path id="パス_1029" data-name="パス 1029" d="M70.194,90.1A9.309,9.309,0,1,0,60.126,75.345a9.306,9.306,0,1,0-15.629.063A9.311,9.311,0,1,0,39.509,90.29a9.309,9.309,0,1,0,12.78,9.169,9.308,9.308,0,1,0,12.655-9.22,9.263,9.263,0,0,0,5.25-.139" fill="#f9bdc4"/>
      <path id="パス_1030" data-name="パス 1030" d="M52.289,82.923a2.785,2.785,0,1,0-2.782-2.785,2.785,2.785,0,0,0,2.782,2.785" fill="#c31d25"/>
      <path id="パス_1031" data-name="パス 1031" d="M49.262,85.031a2.785,2.785,0,1,0-3.51,1.788,2.782,2.782,0,0,0,3.51-1.788" fill="#c31d25"/>
      <path id="パス_1032" data-name="パス 1032" d="M50.328,88.565a2.784,2.784,0,1,0,.618,3.891,2.781,2.781,0,0,0-.618-3.891" fill="#c31d25"/>
      <path id="パス_1033" data-name="パス 1033" d="M54.024,88.613a2.784,2.784,0,1,0,3.89.616,2.783,2.783,0,0,0-3.89-.616" fill="#c31d25"/>
      <path id="パス_1034" data-name="パス 1034" d="M55.235,85.153a2.784,2.784,0,1,0,1.786-3.509,2.782,2.782,0,0,0-1.786,3.509" fill="#c31d25"/>
      <path id="パス_1035" data-name="パス 1035" d="M578.969,72.8l10.215,10.215L578.969,93.229" fill="none" stroke="#624636" stroke-miterlimit="10" stroke-width="1.417"/>
      <line id="線_97" data-name="線 97" transform="translate(482.575 25.045)" fill="none" stroke="#624636" stroke-linecap="round" stroke-miterlimit="10" stroke-width="1.984"/>
      <line id="線_98" data-name="線 98" y1="16.802" x2="11.222" transform="translate(485.068 4.509)" fill="none" stroke="#624636" stroke-linecap="round" stroke-miterlimit="10" stroke-width="1.984" stroke-dasharray="0 4.49"/>
      <line id="線_99" data-name="線 99" transform="translate(497.537 2.643)" fill="none" stroke="#624636" stroke-linecap="round" stroke-miterlimit="10" stroke-width="1.984"/>
      <line id="線_100" data-name="線 100" transform="translate(270.737 25.045)" fill="none" stroke="#624636" stroke-linecap="round" stroke-miterlimit="10" stroke-width="1.984"/>
      <line id="線_101" data-name="線 101" x1="11.222" y1="16.802" transform="translate(257.021 4.509)" fill="none" stroke="#624636" stroke-linecap="round" stroke-miterlimit="10" stroke-width="1.984" stroke-dasharray="0 4.49"/>
      <line id="線_102" data-name="線 102" transform="translate(255.775 2.643)" fill="none" stroke="#624636" stroke-linecap="round" stroke-miterlimit="10" stroke-width="1.984"/>
    </g>
  </g>
</svg>
